<?xml version="1.0" encoding="utf-8"?>
<!-- Generator: Adobe Illustrator 19.0.0, SVG Export Plug-In . SVG Version: 6.00 Build 0)  -->
<svg version="1.1" id="Layer_1" xmlns="http://www.w3.org/2000/svg" xmlns:xlink="http://www.w3.org/1999/xlink" x="0px" y="0px"
	 viewBox="0 0 803.6 241.9" style="enable-background:new 0 0 803.6 241.9;" xml:space="preserve">
<style type="text/css">
	.st0{fill-rule:evenodd;clip-rule:evenodd;fill:#009BDB;}
	.st1{fill:#009BDB;}
</style>
<g>
	<path class="st0" d="M146.7,90l5.6-67.9l58.5,9.4l-37.3,128.9c23.6,1.2,38.6,3,38.6,5.1c0,3.7-47.5,6.6-106.1,6.6
		c-58.6,0-106.1-3-106.1-6.6c0-1.9,13.3-3.7,34.6-4.9L5,49.2l53.3-8.8l3.9,53.3l-18.3,20.5h15.6v52.2h38.7v-31.3
		c0-1.9,1.6-3.5,3.5-3.5h8.5c1.9,0,3.5,1.6,3.5,3.5v31.3h39v-52.2h15.5L146.7,90L146.7,90z"/>
	<path class="st0" d="M327.2,127c-1.3,6.8-3.4,13-6.3,18.5c-2.9,5.5-6.5,10.3-10.9,14.2c-4.4,4-9.4,7-15.2,9.2
		c-5.8,2.2-12.1,3.2-19.1,3.2c-7.8,0-15.1-1.3-21.9-4c-6.8-2.6-12.6-6.6-17.5-11.9c-4.9-5.3-8.8-11.8-11.6-19.5
		c-2.8-7.7-4.2-16.8-4.2-27.1c0-10.1,1.3-19.2,3.9-27.3c2.6-8.1,6.3-14.9,11.1-20.5c4.8-5.6,10.6-9.9,17.5-12.9
		c6.9-3,14.6-4.5,23.1-4.5c7.4,0,14.2,1.1,20.2,3.3c6.1,2.2,11.3,5.3,15.7,9.2c4.4,3.9,7.9,8.5,10.4,13.8c2.6,5.3,4.2,10.9,4.8,16.9
		h-25c-1.7-6.8-4.9-12.1-9.7-15.9c-4.8-3.8-10.2-5.7-16.2-5.7c-10.4,0-18.1,3.8-23,11.2c-4.9,7.5-7.4,17.8-7.4,30.9
		c0,13.3,2.4,23.7,7.3,31c4.9,7.4,12.1,11.1,21.9,11.1c7.4,0,13.4-2,17.9-6c4.5-4,7.6-9.8,9.3-17.4H327.2L327.2,127z M388.6,168
		v-54.9c0-6.7-1.2-11.3-3.5-13.8c-2.3-2.5-6.2-3.7-11.6-3.7c-2.9,0-5.5,0.6-7.7,1.7c-2.3,1.1-4.2,2.7-5.8,4.7
		c-1.6,2-2.7,4.3-3.5,6.8c-0.8,2.6-1.2,5.4-1.2,8.4V168h-23.4V47.1h23.4V91c0.8-1.9,2.1-3.7,3.9-5.5c1.7-1.7,3.7-3.2,6-4.4
		c2.3-1.2,4.8-2.2,7.6-2.9c2.8-0.7,5.6-1.1,8.6-1.1c9.1,0,16.5,2.5,22.2,7.5c5.7,5,8.5,11.9,8.5,20.8V168H388.6L388.6,168z
		 M475.4,124.7c-1.2,1.2-2.9,2.2-5.2,2.9c-2.3,0.7-5.6,1.5-9.9,2.3c-6.7,1.3-11.3,3-13.9,5c-2.5,2-3.8,5-3.8,8.8
		c0,6.6,3.8,9.9,11.3,9.9c3,0,5.8-0.5,8.4-1.5c2.6-1,4.8-2.4,6.7-4.1c1.9-1.7,3.4-3.8,4.5-6.1c1.1-2.3,1.7-4.8,1.7-7.5L475.4,124.7
		L475.4,124.7z M477,168c-0.7-2.3-1.2-4.9-1.4-7.9c-2.8,3.1-6.4,5.6-11,7.5c-4.6,1.9-9.8,2.8-15.8,2.8c-10.2,0-17.7-2.2-22.4-6.7
		c-4.7-4.5-7.1-10.3-7.1-17.5c0-6.4,1-11.4,3.1-15.2c2-3.8,4.9-6.7,8.5-8.9c3.6-2.2,7.9-3.7,12.9-4.8c5-1,10.4-1.9,16.3-2.8
		c5.9-0.8,9.8-1.9,11.9-3.3c2-1.4,3.1-3.6,3.1-6.7c0-2.9-1.4-5.1-4-6.7c-2.7-1.6-6.3-2.4-10.9-2.4c-5.4,0-9.3,1.2-11.6,3.6
		c-2.3,2.4-3.8,5.6-4.4,9.5h-21.8c0.1-4.6,0.9-8.8,2.3-12.6c1.4-3.8,3.6-7.1,6.7-9.9c3.1-2.8,7-4.9,12-6.4c4.9-1.5,10.9-2.2,18-2.2
		c7,0,12.9,0.8,17.7,2.3c4.9,1.6,8.8,3.8,11.7,6.7c2.9,2.9,5.1,6.6,6.4,11c1.3,4.4,2,9.3,2,14.8v56H477L477,168z M508.1,168V47.1
		h23.4V168H508.1L508.1,168z M584.3,150.7c14.3,0,21.4-9,21.4-27c0-17.9-7.1-26.8-21.4-26.8c-14.3,0-21.4,8.9-21.4,26.8
		C562.8,141.7,570,150.7,584.3,150.7L584.3,150.7z M584.3,170.4c-7.2,0-13.6-1.1-19.3-3.4c-5.6-2.3-10.4-5.5-14.3-9.5
		c-3.9-4.1-6.9-9-8.9-14.8c-2-5.8-3.1-12.1-3.1-18.9c0-7,1-13.3,3.1-19.1C544,98.9,547,94,551,89.9c4-4.1,8.7-7.2,14.3-9.4
		c5.6-2.2,11.9-3.3,19-3.3c7,0,13.2,1.1,18.7,3.3c5.5,2.2,10.2,5.3,14.1,9.4c3.9,4,6.9,8.9,9,14.7c2.1,5.8,3.1,12.2,3.1,19.3
		c0,7.1-1.1,13.5-3.1,19.2c-2.1,5.7-5.1,10.6-9,14.7c-3.9,4.1-8.6,7.2-14.2,9.4C597.3,169.3,591.1,170.4,584.3,170.4L584.3,170.4z
		 M693.5,168v-53.6c0-6.8-1.1-11.5-3.4-13.9c-2.3-2.4-6.2-3.6-11.7-3.6c-12.1,0-18.2,6.8-18.2,20.3V168h-23.4V79.5h22.3v13
		c2.8-5,6.4-8.8,11-11.4c4.6-2.6,10.4-3.9,17.6-3.9c4.2,0,8.1,0.6,11.7,1.9c3.6,1.3,6.7,3.1,9.3,5.7c2.6,2.5,4.6,5.6,6.1,9.3
		c1.5,3.7,2.2,7.9,2.2,12.7V168H693.5L693.5,168z M780.2,124.7c-1.2,1.2-2.9,2.2-5.2,2.9c-2.3,0.7-5.6,1.5-9.9,2.3
		c-6.7,1.3-11.3,3-13.9,5c-2.5,2-3.8,5-3.8,8.8c0,6.6,3.8,9.9,11.3,9.9c3,0,5.8-0.5,8.4-1.5c2.6-1,4.8-2.4,6.7-4.1
		c1.9-1.7,3.4-3.8,4.5-6.1c1.1-2.3,1.7-4.8,1.7-7.5L780.2,124.7L780.2,124.7z M781.9,168c-0.7-2.3-1.2-4.9-1.4-7.9
		c-2.8,3.1-6.4,5.6-11,7.5c-4.6,1.9-9.8,2.8-15.8,2.8c-10.2,0-17.7-2.2-22.4-6.7c-4.7-4.5-7.1-10.3-7.1-17.5c0-6.4,1-11.4,3.1-15.2
		c2-3.8,4.9-6.7,8.5-8.9c3.6-2.2,7.9-3.7,12.9-4.8c5-1,10.4-1.9,16.3-2.8c5.9-0.8,9.8-1.9,11.9-3.3c2-1.4,3.1-3.6,3.1-6.7
		c0-2.9-1.4-5.1-4-6.7c-2.7-1.6-6.3-2.4-10.9-2.4c-5.4,0-9.3,1.2-11.6,3.6c-2.3,2.4-3.8,5.6-4.4,9.5H727c0.1-4.6,0.9-8.8,2.3-12.6
		c1.4-3.8,3.6-7.1,6.7-9.9c3.1-2.8,7-4.9,12-6.4c4.9-1.5,10.9-2.2,18-2.2c7,0,12.9,0.8,17.7,2.3c4.9,1.6,8.8,3.8,11.7,6.7
		c2.9,2.9,5.1,6.6,6.4,11c1.3,4.4,2,9.3,2,14.8v56H781.9L781.9,168z"/>
	<polygon class="st0" points="69,86.1 62.8,0 104.4,0 146,0 140.1,82.7 106,44.6 69,86.1 	"/>
	<path class="st1" d="M508.1,208.1c1.5,0,2.7-0.4,3.6-1.2c0.9-0.8,1.6-1.8,1.9-3.1c0.3-1.3,0.5-3.6,0.5-6.8c0-3.2,0.1-5.3,0.1-6.4
		c0.2-1.6,0.5-2.9,1-3.9c0.5-1,1-1.8,1.7-2.4c0.7-0.6,1.6-1,2.7-1.3c0.7-0.2,1.9-0.3,3.6-0.3h1.6v4.6h-0.9c-2,0-3.3,0.4-3.9,1.1
		c-0.6,0.7-1,2.3-1,4.8c0,5-0.1,8.2-0.3,9.6c-0.3,2.1-0.9,3.7-1.8,4.8c-0.8,1.1-2.2,2.1-4,3c2.1,0.9,3.7,2.2,4.7,4.1
		c1,1.8,1.4,4.8,1.4,8.9c0,3.7,0,6,0.1,6.7c0.2,1.3,0.5,2.2,1.2,2.7c0.6,0.5,1.9,0.8,3.7,0.8h0.9v4.6h-1.6c-1.9,0-3.3-0.2-4.1-0.5
		c-1.2-0.4-2.2-1.2-3.1-2.2c-0.8-1-1.3-2.2-1.6-3.8c-0.2-1.5-0.4-4-0.4-7.5c0-3.5-0.2-5.9-0.5-7.2c-0.3-1.3-0.9-2.4-1.8-3.1
		c-0.9-0.8-2.1-1.2-3.6-1.2V208.1L508.1,208.1z"/>
	<path class="st1" d="M803.6,211.7v4.7c-1.5,0-2.7,0.4-3.6,1.2c-0.9,0.8-1.6,1.8-1.9,3.1c-0.3,1.3-0.5,3.6-0.5,6.8
		c0,3.2-0.1,5.3-0.1,6.4c-0.2,1.6-0.5,2.9-1,3.9c-0.5,1-1.1,1.7-1.8,2.3c-0.7,0.6-1.6,1-2.7,1.3c-0.7,0.2-1.9,0.3-3.6,0.3h-1.6v-4.6
		h0.9c2,0,3.3-0.4,4-1.1c0.7-0.7,1-2.3,1-4.9c0-4.8,0.1-7.9,0.2-9.1c0.3-2.1,0.9-3.8,1.9-5.1c0.9-1.3,2.2-2.3,4-3
		c-2.2-1.1-3.8-2.5-4.7-4.2c-0.9-1.7-1.4-4.7-1.4-8.8c0-3.8,0-6-0.1-6.7c-0.1-1.3-0.5-2.2-1.1-2.7c-0.6-0.5-1.9-0.8-3.7-0.8h-0.9
		v-4.6h1.6c1.9,0,3.3,0.2,4.1,0.5c1.2,0.4,2.2,1.1,3.1,2.1c0.8,1,1.3,2.3,1.6,3.8c0.2,1.5,0.4,4,0.4,7.5c0,3.5,0.2,5.9,0.5,7.2
		c0.3,1.3,0.9,2.4,1.9,3.1C800.9,211.3,802.2,211.7,803.6,211.7L803.6,211.7z"/>
	<path class="st1" d="M530.2,218.8l5.8-0.5c0.3,2.3,0.9,4.3,1.9,5.8c1,1.5,2.6,2.7,4.7,3.6c2.1,0.9,4.5,1.4,7.2,1.4
		c2.4,0,4.4-0.3,6.2-1.1c1.8-0.7,3.1-1.7,4-2.9c0.9-1.2,1.3-2.6,1.3-4c0-1.5-0.4-2.7-1.3-3.8c-0.8-1.1-2.2-2-4.2-2.7
		c-1.2-0.5-4-1.2-8.3-2.3c-4.3-1-7.3-2-9-2.9c-2.2-1.2-3.9-2.6-5-4.4c-1.1-1.7-1.6-3.7-1.6-5.8c0-2.4,0.7-4.6,2-6.6
		c1.3-2.1,3.3-3.6,5.8-4.7c2.6-1.1,5.4-1.6,8.6-1.6c3.5,0,6.5,0.6,9.1,1.7c2.6,1.1,4.7,2.7,6.1,4.9c1.4,2.2,2.2,4.6,2.3,7.3
		l-5.9,0.5c-0.3-2.9-1.4-5.2-3.2-6.7c-1.8-1.5-4.5-2.3-8.1-2.3c-3.7,0-6.5,0.7-8.2,2.1c-1.7,1.4-2.6,3-2.6,4.9c0,1.7,0.6,3,1.8,4.1
		c1.2,1.1,4.3,2.2,9.3,3.3c5,1.1,8.5,2.1,10.3,3c2.7,1.2,4.7,2.8,6,4.7c1.3,1.9,1.9,4.1,1.9,6.6c0,2.5-0.7,4.8-2.1,7
		c-1.4,2.2-3.5,3.9-6.1,5.1c-2.7,1.2-5.6,1.8-9,1.8c-4.2,0-7.7-0.6-10.6-1.8c-2.9-1.2-5.1-3.1-6.7-5.5
		C531.2,224.7,530.3,221.9,530.2,218.8L530.2,218.8z M572.8,216.8c0-6.2,1.7-10.9,5.2-13.9c2.9-2.5,6.4-3.7,10.6-3.7
		c4.6,0,8.4,1.5,11.4,4.6c2.9,3,4.4,7.2,4.4,12.6c0,4.3-0.7,7.7-2,10.2c-1.3,2.5-3.2,4.4-5.7,5.8c-2.5,1.4-5.2,2.1-8.2,2.1
		c-4.7,0-8.6-1.5-11.5-4.5C574.3,226.9,572.8,222.5,572.8,216.8L572.8,216.8z M578.7,216.9c0,4.3,0.9,7.6,2.8,9.7
		c1.9,2.1,4.3,3.2,7.2,3.2c2.8,0,5.2-1.1,7.1-3.2c1.9-2.2,2.8-5.4,2.8-9.9c0-4.2-1-7.3-2.9-9.5c-1.9-2.1-4.3-3.2-7.1-3.2
		c-2.9,0-5.3,1.1-7.2,3.2C579.6,209.3,578.7,212.5,578.7,216.9L578.7,216.9z M612.6,233.7v-29.4h-5.1v-4.4h5.1v-3.6
		c0-2.3,0.2-4,0.6-5c0.6-1.5,1.5-2.7,2.9-3.6c1.4-0.9,3.3-1.4,5.8-1.4c1.6,0,3.4,0.2,5.4,0.6l-0.9,5c-1.2-0.2-2.3-0.3-3.4-0.3
		c-1.7,0-3,0.4-3.7,1.1c-0.7,0.7-1.1,2.1-1.1,4.1v3.1h6.6v4.4h-6.5v29.4H612.6L612.6,233.7z M641.7,228.6l0.8,5.1
		c-1.6,0.3-3,0.5-4.3,0.5c-2.1,0-3.7-0.3-4.8-1c-1.1-0.7-1.9-1.5-2.4-2.6c-0.5-1.1-0.7-3.3-0.7-6.8v-19.5H626v-4.4h4.2v-8.4l5.7-3.4
		v11.8h5.7v4.4H636v19.8c0,1.6,0.1,2.7,0.3,3.2c0.2,0.5,0.5,0.8,1,1.1c0.5,0.3,1.1,0.4,2,0.4C639.9,228.9,640.7,228.8,641.7,228.6
		L641.7,228.6z M653.4,233.7l-10.2-33.8h6l5.4,19.5l1.9,7.3c0.1-0.4,0.7-2.7,1.7-7l5.4-19.8h5.9l5.1,19.6l1.7,6.4l1.9-6.5l5.8-19.5
		h5.6L679,233.7h-5.9l-5.4-20.2l-1.4-5.8l-6.8,26H653.4L653.4,233.7z M716.5,229.5c-2.1,1.8-4.2,3.1-6.1,3.8c-2,0.7-4.1,1.1-6.3,1.1
		c-3.7,0-6.6-0.9-8.6-2.7c-2-1.8-3-4.1-3-6.9c0-1.6,0.4-3.2,1.1-4.5c0.8-1.4,1.7-2.5,3-3.3c1.2-0.8,2.6-1.5,4.1-1.9
		c1.1-0.3,2.8-0.6,5.1-0.9c4.6-0.5,8-1.2,10.2-2c0-0.8,0-1.3,0-1.5c0-2.3-0.5-4-1.6-4.9c-1.5-1.3-3.6-1.9-6.5-1.9
		c-2.7,0-4.7,0.5-6,1.4c-1.3,0.9-2.2,2.6-2.9,5l-5.6-0.8c0.5-2.4,1.3-4.3,2.5-5.8c1.2-1.5,2.9-2.6,5.1-3.4c2.2-0.8,4.8-1.2,7.7-1.2
		c2.9,0,5.2,0.3,7.1,1c1.8,0.7,3.1,1.5,4,2.6c0.8,1,1.4,2.3,1.8,3.9c0.2,1,0.3,2.7,0.3,5.3v7.6c0,5.3,0.1,8.7,0.4,10.1
		c0.2,1.4,0.7,2.8,1.4,4.1h-6C717,232.5,716.6,231.1,716.5,229.5L716.5,229.5z M716,216.8c-2.1,0.8-5.2,1.6-9.4,2.1
		c-2.4,0.3-4,0.7-5,1.1c-1,0.4-1.7,1-2.3,1.8c-0.5,0.8-0.8,1.7-0.8,2.7c0,1.5,0.6,2.8,1.7,3.8c1.2,1,2.9,1.5,5.1,1.5
		c2.2,0,4.2-0.5,5.9-1.4c1.7-1,3-2.3,3.8-3.9c0.6-1.3,0.9-3.2,0.9-5.7L716,216.8L716,216.8z M730.5,233.7v-33.8h5.1v5.2
		c1.3-2.4,2.5-4,3.6-4.7c1.1-0.8,2.3-1.2,3.7-1.2c1.9,0,3.9,0.6,5.9,1.8l-2,5.3c-1.4-0.8-2.8-1.2-4.2-1.2c-1.2,0-2.4,0.4-3.4,1.1
		c-1,0.7-1.7,1.8-2.1,3.1c-0.6,2-1,4.3-1,6.7v17.7H730.5L730.5,233.7z M775.3,222.8l5.9,0.8c-0.9,3.4-2.6,6.1-5.2,8
		c-2.5,1.9-5.7,2.9-9.6,2.9c-4.9,0-8.8-1.5-11.7-4.6c-2.9-3-4.3-7.3-4.3-12.8c0-5.7,1.5-10.1,4.4-13.2c2.9-3.1,6.7-4.7,11.4-4.7
		c4.5,0,8.2,1.5,11,4.6c2.9,3.1,4.3,7.4,4.3,13c0,0.3,0,0.8,0,1.5h-25.2c0.2,3.7,1.3,6.5,3.1,8.5c1.9,2,4.2,3,7,3
		c2.1,0,3.9-0.6,5.4-1.7C773.3,227,774.5,225.2,775.3,222.8L775.3,222.8z M756.6,213.6h18.8c-0.2-2.8-1-5-2.2-6.4
		c-1.8-2.2-4.2-3.3-7.1-3.3c-2.6,0-4.8,0.9-6.6,2.6C757.8,208.3,756.8,210.7,756.6,213.6L756.6,213.6z"/>
</g>
</svg>
