<?xml version="1.0" standalone="no"?>
<!DOCTYPE svg PUBLIC "-//W3C//DTD SVG 20010904//EN"
 "http://www.w3.org/TR/2001/REC-SVG-20010904/DTD/svg10.dtd">
<svg version="1.0" xmlns="http://www.w3.org/2000/svg"
 width="512.000000pt" height="512.000000pt" viewBox="0 0 512.000000 512.000000"
 preserveAspectRatio="xMidYMid meet">
<metadata>
Created by potrace 1.11, written by Peter Selinger 2001-2013
</metadata>
<g transform="translate(0.000000,512.000000) scale(0.100000,-0.100000)"
fill="#000000" stroke="none">
<path d="M1864 4058 c4 -51 11 -147 16 -213 5 -66 17 -225 26 -353 l17 -233
-22 -27 c-12 -15 -35 -49 -52 -75 -18 -27 -35 -45 -39 -40 -4 4 -13 89 -20
188 -6 99 -12 181 -13 182 -1 1 -47 -7 -102 -16 -55 -10 -248 -42 -430 -72
-181 -29 -332 -54 -334 -56 -6 -4 92 -379 217 -838 33 -121 83 -308 112 -415
28 -107 66 -251 85 -320 40 -144 67 -261 63 -265 -2 -2 -95 -11 -208 -20 -203
-16 -308 -32 -345 -52 -17 -10 -12 -13 34 -27 97 -28 350 -49 886 -71 l140 -6
-45 45 c-82 80 -156 258 -167 401 l-6 70 57 52 56 52 0 160 0 160 -126 3 -126
3 123 139 c68 77 123 147 122 155 -2 10 0 11 3 4 3 -7 22 -13 42 -13 l37 -1
-23 -19 c-23 -19 -23 -20 -5 -52 9 -18 16 -36 15 -40 -3 -14 131 -129 196
-167 78 -47 194 -91 326 -125 l91 -24 3 -71 c2 -49 -2 -79 -13 -100 -12 -24
-15 -67 -15 -206 l0 -176 36 -15 c19 -8 47 -17 63 -20 l27 -6 0 351 0 351 -35
9 c-20 5 -67 16 -104 25 -154 36 -340 130 -431 220 -114 111 -156 214 -156
385 0 195 44 310 164 438 58 62 93 90 139 111 104 49 111 52 140 68 16 9 78
26 139 39 74 15 114 28 120 39 13 24 28 19 28 -9 0 -25 0 -25 95 -25 l94 0 4
93 3 92 2 -95 c2 -91 3 -95 25 -97 93 -6 257 -37 307 -58 33 -14 62 -25 64
-25 3 0 7 15 10 33 5 29 46 612 46 651 0 14 -68 16 -681 16 l-682 0 7 -92z"/>
<path d="M3327 3727 c-3 -34 -11 -133 -18 -220 l-12 -158 35 -37 c44 -48 83
-110 107 -170 22 -56 54 -197 49 -213 -3 -8 -50 -10 -158 -8 -85 1 -184 3
-220 3 l-64 1 -8 44 c-11 66 -45 127 -94 170 -63 55 -185 95 -170 55 3 -9 7
-154 8 -322 l3 -307 2 253 3 252 28 -14 c48 -25 90 -79 111 -143 12 -34 21
-69 21 -77 0 -22 25 -27 167 -27 l135 0 -7 -68 -7 -68 79 -84 c115 -125 267
-299 272 -310 2 -7 -28 -9 -82 -7 -76 3 -84 1 -72 -12 38 -42 86 -170 97 -258
25 -195 -35 -405 -151 -534 -50 -55 -191 -157 -246 -178 -78 -30 -219 -64
-285 -69 l-75 -6 -3 -116 -3 -116 -52 -7 c-29 -3 -71 -6 -94 -6 -37 0 -50 -7
-97 -49 -30 -27 -52 -52 -49 -55 4 -3 54 -6 113 -6 l106 0 47 48 47 48 0 71 0
72 56 11 c140 29 263 85 367 165 l68 53 102 6 c56 3 206 10 332 16 339 16 574
45 591 71 15 25 -156 53 -425 70 -132 9 -195 17 -198 25 -2 7 16 83 42 171 57
195 101 344 155 533 23 80 61 210 85 290 46 154 73 247 210 725 48 165 93 320
101 344 8 25 11 48 7 52 -5 4 -125 26 -268 48 -401 63 -627 100 -656 105 -26
5 -26 3 -32 -57z"/>
<path d="M2503 3523 c9 -2 23 -2 30 0 6 3 -1 5 -18 5 -16 0 -22 -2 -12 -5z"/>
<path d="M2480 3187 c-36 -13 -74 -29 -86 -35 -26 -14 -71 -72 -89 -115 -19
-46 -27 -145 -15 -187 l10 -35 -5 41 c-6 55 11 143 34 174 10 14 45 36 79 50
72 29 185 131 145 130 -5 0 -37 -11 -73 -23z"/>
<path d="M2512 2814 c-43 -42 -43 -44 -40 -105 3 -60 4 -63 32 -70 18 -5 35
-4 42 2 16 13 28 145 17 185 l-8 31 -43 -43z"/>
<path d="M3190 2446 c0 -2 7 -7 16 -10 8 -3 12 -2 9 4 -6 10 -25 14 -25 6z"/>
<path d="M2777 1907 c-3 -155 -3 -301 0 -325 13 -96 18 -27 15 213 -3 274 -4
270 48 240 29 -17 44 -19 35 -5 -3 5 0 7 7 5 8 -3 31 12 52 34 l38 38 -31 22
c-29 21 -79 41 -132 54 l-26 7 -6 -283z"/>
<path d="M3038 1754 c-33 -36 -68 -98 -68 -121 0 -18 91 85 101 114 16 50 8
52 -33 7z"/>
<path d="M2840 1560 c-21 -7 -21 -8 -5 -9 11 0 27 4 35 9 18 11 5 11 -30 0z"/>
<path d="M1937 1382 l-36 -37 20 -31 c23 -38 118 -106 192 -138 58 -26 236
-72 307 -79 44 -5 46 -4 93 48 l47 52 -77 12 c-175 28 -290 71 -438 165 -27
18 -55 35 -61 39 -6 3 -27 -11 -47 -31z"/>
<path d="M2578 1013 c-6 -23 -5 -23 70 -21 l77 2 -67 3 c-53 3 -67 7 -70 21
-3 13 -5 12 -10 -5z"/>
</g>
</svg>
